<svg width="1000" height="1000" xmlns="http://www.w3.org/2000/svg">
    <!-- 头部 -->
    <circle cx="500" cy="300" r="150" fill="#FFD8B1" stroke="#000" stroke-width="2"/>

    <!-- 头发 -->
    <path d="M350,300 C350,150 650,150 650,300 C650,100 350,100 350,300 Z" fill="#6A4C93" stroke="#000" stroke-width="2"/>
    <path d="M350,300 C350,250 300,200 250,220 L250,300 Z" fill="#6A4C93" stroke="#000" stroke-width="2"/>
    <path d="M650,300 C650,250 700,200 750,220 L750,300 Z" fill="#6A4C93" stroke="#000" stroke-width="2"/>

    <!-- 眼睛 -->
    <ellipse cx="420" cy="280" rx="25" ry="15" fill="white" stroke="#000" stroke-width="2"/>
    <ellipse cx="580" cy="280" rx="25" ry="15" fill="white" stroke="#000" stroke-width="2"/>
    <circle cx="420" cy="280" r="10" fill="#6495ED" stroke="#000" stroke-width="1"/>
    <circle cx="580" cy="280" r="10" fill="#6495ED" stroke="#000" stroke-width="1"/>
    <circle cx="425" cy="275" r="5" fill="#000"/>
    <circle cx="585" cy="275" r="5" fill="#000"/>

    <!-- 眉毛 -->
    <path d="M390,240 Q420,220 450,240" fill="none" stroke="#000" stroke-width="3"/>
    <path d="M550,240 Q580,220 610,240" fill="none" stroke="#000" stroke-width="3"/>

    <!-- 鼻子 -->
    <path d="M500,300 L490,330 L510,330 Z" fill="#FFD8B1" stroke="#000" stroke-width="1"/>

    <!-- 嘴巴 -->
    <path d="M450,360 Q500,380 550,360" fill="none" stroke="#000" stroke-width="2"/>

    <!-- 脸颊红晕 -->
    <circle cx="400" cy="340" r="20" fill="#FFB6C1" opacity="0.5"/>
    <circle cx="600" cy="340" r="20" fill="#FFB6C1" opacity="0.5"/>

    <!-- 身体 -->
    <path d="M500,450  L450,800 L550,800 Z" fill="#5F9EA0" stroke="#000" stroke-width="2"/>

    <!-- 颈部 -->
    <rect x="485" y="420" width="30" height="30" fill="#FFD8B1" stroke="#000" stroke-width="1"/>

    <!-- 手臂 -->
    <path d="M450,500 L350,600 L370,620 L470,520 Z" fill="#FFD8B1" stroke="#000" stroke-width="2"/>
    <path d="M550,500 L650,600 L630,620 L530,520 Z" fill="#FFD8B1" stroke="#000" stroke-width="2"/>

    <!-- 腿 -->
    <path d="M470,800 L450,900 L480,900 Z" fill="#1E90FF" stroke="#000" stroke-width="2"/>
    <path d="M530,800 L550,900 L520,900 Z" fill="#1E90FF" stroke="#000" stroke-width="2"/>

    <!-- 鞋子 -->
    <ellipse cx="460" cy="910" rx="30" ry="15" fill="#000" stroke="#000" stroke-width="1"/>
    <ellipse cx="540" cy="910" rx="30" ry="15" fill="#000" stroke="#000" stroke-width="1"/>
</svg>
